<svg width="24" height="24" viewBox="0 0 24 24" fill="none" xmlns="http://www.w3.org/2000/svg">
<path d="M0 2.25C0 1.83579 0.335786 1.5 0.75 1.5H3C3.34415 1.5 3.64414 1.73422 3.72761 2.0681L4.33558 4.5H21.75C21.9747 4.5 22.1876 4.60074 22.33 4.77451C22.4725 4.94827 22.5295 5.17676 22.4854 5.39709L20.9854 12.8971C20.9181 13.2339 20.6306 13.4819 20.2876 13.4991L6.19233 14.206L6.62244 16.5H19.5C19.9142 16.5 20.25 16.8358 20.25 17.25C20.25 17.6642 19.9142 18 19.5 18H18H7.5H6C5.63909 18 5.32936 17.7429 5.26285 17.3882L3.01697 5.4102L2.41442 3H0.75C0.335786 3 0 2.66421 0 2.25ZM4.65369 6L5.91335 12.7181L19.6291 12.0302L20.8351 6H4.65369ZM7.5 18C5.84315 18 4.5 19.3431 4.5 21C4.5 22.6569 5.84315 24 7.5 24C9.15685 24 10.5 22.6569 10.5 21C10.5 19.3431 9.15685 18 7.5 18ZM18 18C16.3431 18 15 19.3431 15 21C15 22.6569 16.3431 24 18 24C19.6569 24 21 22.6569 21 21C21 19.3431 19.6569 18 18 18ZM7.5 19.5C8.32843 19.5 9 20.1716 9 21C9 21.8284 8.32843 22.5 7.5 22.5C6.67157 22.5 6 21.8284 6 21C6 20.1716 6.67157 19.5 7.5 19.5ZM18 19.5C18.8284 19.5 19.5 20.1716 19.5 21C19.5 21.8284 18.8284 22.5 18 22.5C17.1716 22.5 16.5 21.8284 16.5 21C16.5 20.1716 17.1716 19.5 18 19.5Z" fill="#FF6182"/>
</svg>
