<svg width="24" height="24" viewBox="0 0 24 24" fill="none" xmlns="http://www.w3.org/2000/svg">
<path d="M12 9.3541L10.6584 6.67082C10.326 6.0061 9.74813 5.0498 8.93112 4.2777C8.12674 3.51755 7.16473 3 6 3C3.48601 3 1.5 4.98942 1.5 7.38C1.5 9.19661 2.33059 10.4787 4.30233 12.435C4.80714 12.9359 5.38402 13.4773 6.02033 14.0745C7.68293 15.6348 9.7513 17.5759 12 20.17C14.2487 17.5759 16.3171 15.6348 17.9797 14.0745C18.616 13.4773 19.1929 12.9359 19.6977 12.435C21.6694 10.4787 22.5 9.19661 22.5 7.38C22.5 4.98942 20.514 3 18 3C16.8353 3 15.8733 3.51755 15.0689 4.2777C14.2519 5.0498 13.674 6.0061 13.3416 6.67082L12 9.3541ZM12.5873 21.7917C12.2816 22.1547 11.7184 22.1547 11.4127 21.7917C9.01039 18.9391 6.83729 16.8997 5.04761 15.22C1.9492 12.3122 0 10.4828 0 7.38C0 4.13257 2.68629 1.5 6 1.5C8.40023 1.5 10.0778 3.07397 11.1053 4.5118C11.4963 5.05901 11.7932 5.5865 12 6C12.2068 5.5865 12.5037 5.05901 12.8947 4.5118C13.9222 3.07398 15.5998 1.5 18 1.5C21.3137 1.5 24 4.13257 24 7.38C24 10.4828 22.0508 12.3122 18.9524 15.22C17.1627 16.8997 14.9896 18.9391 12.5873 21.7917Z" fill="#FF6182"/>
</svg>
