<svg width="202" height="182" viewBox="0 0 202 182" fill="none" xmlns="http://www.w3.org/2000/svg">
<path d="M12.608 80.44V96.824H18.048C24.0213 96.824 27.008 93.9227 27.008 88.12C27.008 86.1147 26.2613 84.344 24.768 82.808C23.2747 81.2293 20.7787 80.44 17.28 80.44H12.608ZM12.608 63.736V78.584H15.232C21.2053 78.584 24.192 75.8747 24.192 70.456C24.192 65.976 20.9493 63.736 14.464 63.736H12.608ZM2.688 99V97.656C4.992 97.656 6.336 97.2293 6.72 96.376V64.184C6.336 63.3307 4.992 62.904 2.688 62.904V61.56H14.464C19.7973 61.56 23.808 62.4347 26.496 64.184C29.2267 65.9333 30.592 68.0027 30.592 70.392C30.592 74.744 28.3307 77.688 23.808 79.224C27.008 79.9493 29.3973 81.144 30.976 82.808C32.5973 84.4293 33.408 86.1787 33.408 88.056C33.408 91.2987 32.1067 93.944 29.504 95.992C26.944 97.9973 23.1253 99 18.048 99H2.688ZM44.2635 83.576C44.3062 87.16 45.3302 90.3387 47.3355 93.112C49.3835 95.8427 51.6662 97.208 54.1835 97.208C57.8955 97.208 60.8822 95.8 63.1435 92.984L64.6795 93.752C63.4422 95.8 61.8208 97.2933 59.8155 98.232C57.8528 99.1707 55.2502 99.64 52.0075 99.64C50.3862 99.64 48.8288 99.4053 47.3355 98.936C45.8422 98.424 44.3702 97.6133 42.9195 96.504C41.4688 95.352 40.3168 93.6667 39.4635 91.448C38.6102 89.2293 38.1835 86.584 38.1835 83.512C38.1835 79.7573 39.3355 76.6 41.6395 74.04C43.9862 71.48 47.2288 70.2 51.3675 70.2C55.8902 70.2 59.2608 71.48 61.4795 74.04C63.6982 76.5573 64.8075 79.736 64.8075 83.576H44.2635ZM44.3275 81.592H58.5355C58.2795 78.52 57.6182 76.1733 56.5515 74.552C55.5275 72.9307 53.7142 72.12 51.1115 72.12C49.6182 72.12 48.1675 72.9947 46.7595 74.744C45.3942 76.4933 44.5835 78.776 44.3275 81.592ZM143.135 95.096C143.135 95.096 144.479 95.2027 147.167 95.416V96.888C146.356 96.888 144.756 97.3573 142.367 98.296C140.02 99.192 138.356 99.64 137.375 99.64V96.696C135.071 98.6587 132.532 99.64 129.759 99.64C125.791 99.64 122.911 98.9147 121.119 97.464C119.37 95.9707 118.495 93.6667 118.495 90.552V73.464C118.111 72.6107 116.767 72.184 114.463 72.184V70.84H124.255V91C124.255 95.3093 126.218 97.464 130.143 97.464C132.831 97.464 135.242 96.5253 137.375 94.648V73.464C136.991 72.6107 135.647 72.184 133.343 72.184V70.84H143.135V95.096ZM160.083 61.56V70.84H165.587V72.76H160.083V93.112C160.083 94.4347 160.317 95.4587 160.787 96.184C161.256 96.8667 162.131 97.208 163.411 97.208C164.179 97.208 164.947 96.8453 165.715 96.12C166.525 95.352 167.08 94.3067 167.378 92.984L168.915 93.752C168.019 97.6773 165.459 99.64 161.235 99.64C156.371 99.64 153.939 97.2933 153.939 92.6V72.76H149.459V70.84C151.464 70.84 153.277 70.008 154.899 68.344C156.52 66.68 157.331 64.4187 157.331 61.56H160.083ZM181.971 70.84V72.184C180.734 72.184 179.838 72.2693 179.283 72.44L186.899 91.192L194.195 72.888C193.598 72.4187 192.403 72.184 190.611 72.184V70.84H201.107V72.184C198.803 72.184 197.48 72.568 197.139 73.336L184.275 105.528C183.464 107.533 182.419 108.984 181.139 109.88C179.902 110.819 178.707 111.288 177.555 111.288C176.488 111.288 175.635 111.011 174.995 110.456C174.398 109.901 174.099 109.24 174.099 108.472C174.099 107.832 174.312 107.256 174.739 106.744C175.208 106.232 175.827 105.976 176.595 105.976C177.064 105.976 177.555 106.147 178.067 106.488C178.579 106.872 178.963 107.064 179.219 107.064C180.115 107.064 180.712 106.68 181.011 105.912L183.763 99L173.587 73.464C173.203 72.6107 171.859 72.184 169.555 72.184V70.84H181.971Z" fill="#ED6C84"/>
<path d="M102.128 42.04C102.128 50.0613 98.6293 61.2827 91.632 75.704C84.72 90.04 76.4427 103.48 66.8 116.024C78.32 113.037 89.584 111.459 100.592 111.288C101.445 107.277 101.872 103.651 101.872 100.408C101.872 97.08 101.147 94.136 99.696 91.576C102 89.9547 104.645 89.144 107.632 89.144C110.704 89.144 112.88 89.8693 114.16 91.32C115.525 92.7707 116.208 94.9467 116.208 97.848C116.208 100.749 115.568 105.699 114.288 112.696C119.664 114.232 122.352 117.389 122.352 122.168C122.352 123.107 122.267 124.6 122.096 126.648C119.963 125.709 116.72 124.813 112.368 123.96C111.771 127.971 111.472 131 111.472 133.048C111.472 137.315 113.008 140.941 116.08 143.928C113.264 146.488 110.235 147.768 106.992 147.768C103.749 147.768 101.275 146.829 99.568 144.952C97.9467 142.989 97.136 139.96 97.136 135.864C97.136 131.768 97.5627 127.288 98.416 122.424C94.6613 122.168 90.9067 122.04 87.152 122.04C76.144 122.04 66.928 122.936 59.504 124.728C58.0533 126.179 56.56 126.904 55.024 126.904C51.8667 126.904 49.52 125.325 47.984 122.168C57.456 111.757 66.2453 98.9147 74.352 83.64C82.544 68.3653 86.64 55.0107 86.64 43.576C86.64 41.528 86.256 39.6933 85.488 38.072C89.1573 35 92.656 33.464 95.984 33.464C98.032 33.464 99.568 34.0613 100.592 35.256C101.616 36.4507 102.128 38.712 102.128 42.04Z" fill="#ED6C84"/>
<path d="M128.36 133.36C128.387 135.6 129.027 137.587 130.28 139.32C131.56 141.027 132.987 141.88 134.56 141.88C136.88 141.88 138.747 141 140.16 139.24L141.12 139.72C140.347 141 139.333 141.933 138.08 142.52C136.853 143.107 135.227 143.4 133.2 143.4C132.187 143.4 131.213 143.253 130.28 142.96C129.347 142.64 128.427 142.133 127.52 141.44C126.613 140.72 125.893 139.667 125.36 138.28C124.827 136.893 124.56 135.24 124.56 133.32C124.56 130.973 125.28 129 126.72 127.4C128.187 125.8 130.213 125 132.8 125C135.627 125 137.733 125.8 139.12 127.4C140.507 128.973 141.2 130.96 141.2 133.36H128.36ZM128.4 132.12H137.28C137.12 130.2 136.707 128.733 136.04 127.72C135.4 126.707 134.267 126.2 132.64 126.2C131.707 126.2 130.8 126.747 129.92 127.84C129.067 128.933 128.56 130.36 128.4 132.12ZM150.013 125.4V126.24C149.24 126.24 148.68 126.293 148.333 126.4L153.093 138.12L157.653 126.68C157.28 126.387 156.533 126.24 155.413 126.24V125.4H161.973V126.24C160.506 126.24 159.68 126.493 159.493 127L153.093 143H151.133L144.773 127.04C144.533 126.507 143.693 126.24 142.253 126.24V125.4H150.013ZM166.758 133.36C166.785 135.6 167.425 137.587 168.678 139.32C169.958 141.027 171.385 141.88 172.958 141.88C175.278 141.88 177.145 141 178.558 139.24L179.518 139.72C178.745 141 177.732 141.933 176.478 142.52C175.252 143.107 173.625 143.4 171.598 143.4C170.585 143.4 169.612 143.253 168.678 142.96C167.745 142.64 166.825 142.133 165.918 141.44C165.012 140.72 164.292 139.667 163.758 138.28C163.225 136.893 162.958 135.24 162.958 133.32C162.958 130.973 163.678 129 165.118 127.4C166.585 125.8 168.612 125 171.198 125C174.025 125 176.132 125.8 177.518 127.4C178.905 128.973 179.598 130.96 179.598 133.36H166.758ZM166.798 132.12H175.678C175.518 130.2 175.105 128.733 174.438 127.72C173.798 126.707 172.665 126.2 171.038 126.2C170.105 126.2 169.198 126.747 168.318 127.84C167.465 128.933 166.958 130.36 166.798 132.12ZM182.365 143V142.16C183.805 142.16 184.645 141.893 184.885 141.36V127.84C183.232 127.707 182.392 127.64 182.365 127.64V126.72C182.872 126.72 183.858 126.44 185.325 125.88C186.818 125.293 187.872 125 188.485 125V126.76C189.818 125.587 191.138 125 192.445 125C193.645 125 194.645 125.227 195.445 125.68C196.272 126.133 196.685 126.64 196.685 127.2C196.685 128.16 196.152 128.64 195.085 128.64C194.525 128.64 194.018 128.267 193.565 127.52C193.112 126.747 192.592 126.36 192.005 126.36C190.965 126.36 189.792 126.933 188.485 128.08V141.36C188.725 141.893 189.565 142.16 191.005 142.16V143H182.365Z" fill="#ED6C84"/>
</svg>
